<svg xmlns="http://www.w3.org/2000/svg" width="49" height="51" viewBox="0 0 49 51" fill="#fff">
<path d="M43.0861 5.1H42.0056L40.5086 0.5814C40.3937 0.234175 40.0706 -0.000106214 39.7068 3.61245e-08H10.9827C10.6189 -0.000106214 10.2959 0.234175 10.1809 0.5814L8.68391 5.1H7.60337C7.13682 5.1 6.75854 5.48059 6.75854 5.95V12.75C6.75854 13.2194 7.13682 13.6 7.60337 13.6H9.36653L12.6723 50.2273C12.7123 50.6664 13.079 51.0018 13.5172 51H37.1723C37.6105 51.0018 37.9772 50.6664 38.0172 50.2273L41.323 13.6H43.0861C43.5527 13.6 43.931 13.2194 43.931 12.75V5.95C43.931 5.48059 43.5527 5.1 43.0861 5.1ZM11.5918 1.7H39.0977L40.2247 5.1H10.4648L11.5918 1.7ZM36.4052 49.3H14.2927L13.6016 41.65H37.0963L36.4052 49.3ZM37.2458 39.95H13.4437L11.912 22.95H38.786L37.2458 39.95ZM38.9355 21.25H11.754L11.0672 13.6H39.6308L38.9355 21.25ZM42.2413 11.9H8.4482V6.8H42.2413V11.9Z" fill="black"/>
<path d="M25.3449 24.65C21.6123 24.65 18.5863 27.6945 18.5863 31.45C18.5905 35.2038 21.614 38.2457 25.3449 38.25C29.0776 38.25 32.1035 35.2055 32.1035 31.45C32.1035 27.6945 29.0776 24.65 25.3449 24.65ZM25.3449 36.55C22.5454 36.55 20.276 34.2667 20.276 31.45C20.2787 28.6344 22.5465 26.3527 25.3449 26.35C28.1445 26.35 30.4139 28.6333 30.4139 31.45C30.4139 34.2667 28.1445 36.55 25.3449 36.55Z" fill="black"/>
<path d="M7.60345 21.25C6.20367 21.25 5.06897 20.1083 5.06897 18.7C5.06897 18.2306 4.69069 17.85 4.22414 17.85C3.75758 17.85 3.37931 18.2306 3.37931 18.7C3.37931 20.1083 2.2446 21.25 0.844828 21.25C0.378272 21.25 0 21.6306 0 22.1C0 22.5694 0.378272 22.95 0.844828 22.95C2.2446 22.95 3.37931 24.0916 3.37931 25.5C3.37931 25.9694 3.75758 26.35 4.22414 26.35C4.69069 26.35 5.06897 25.9694 5.06897 25.5C5.06897 24.0916 6.20367 22.95 7.60345 22.95C8.07 22.95 8.44828 22.5694 8.44828 22.1C8.44828 21.6306 8.07 21.25 7.60345 21.25ZM4.22414 22.95C3.98357 22.6281 3.69918 22.342 3.37931 22.1C3.69918 21.8579 3.98357 21.5718 4.22414 21.25C4.4647 21.5718 4.74909 21.8579 5.06897 22.1C4.74909 22.342 4.4647 22.6281 4.22414 22.95Z" fill="black"/>
<path d="M48.1552 39.95C46.7554 39.95 45.6207 38.8083 45.6207 37.4C45.6207 36.9306 45.2425 36.55 44.7759 36.55C44.3093 36.55 43.9311 36.9306 43.9311 37.4C43.9311 38.8083 42.7964 39.95 41.3966 39.95C40.93 39.95 40.5518 40.3306 40.5518 40.8C40.5518 41.2694 40.93 41.65 41.3966 41.65C42.7964 41.65 43.9311 42.7916 43.9311 44.2C43.9311 44.6694 44.3093 45.05 44.7759 45.05C45.2425 45.05 45.6207 44.6694 45.6207 44.2C45.6207 42.7916 46.7554 41.65 48.1552 41.65C48.6218 41.65 49 41.2694 49 40.8C49 40.3306 48.6218 39.95 48.1552 39.95ZM44.7759 41.65C44.5353 41.3282 44.2509 41.042 43.9311 40.8C44.2509 40.5579 44.5353 40.2718 44.7759 39.95C45.0165 40.2718 45.3009 40.5579 45.6207 40.8C45.3009 41.042 45.0165 41.3282 44.7759 41.65Z" fill="black"/>
<path d="M18.5862 45.9H16.8966C16.43 45.9 16.0518 46.2806 16.0518 46.75C16.0518 47.2194 16.43 47.6 16.8966 47.6H18.5862C19.0528 47.6 19.4311 47.2194 19.4311 46.75C19.4311 46.2806 19.0528 45.9 18.5862 45.9Z" fill="black"/>
<path d="M33.7931 45.9H21.9656C21.499 45.9 21.1207 46.2806 21.1207 46.75C21.1207 47.2194 21.499 47.6 21.9656 47.6H33.7931C34.2597 47.6 34.638 47.2194 34.638 46.75C34.638 46.2806 34.2597 45.9 33.7931 45.9Z" fill="black"/>
<path d="M12.6723 8.5H10.9826C10.5161 8.5 10.1378 8.88059 10.1378 9.35C10.1378 9.81941 10.5161 10.2 10.9826 10.2H12.6723C13.1389 10.2 13.5171 9.81941 13.5171 9.35C13.5171 8.88059 13.1389 8.5 12.6723 8.5Z" fill="black"/>
<path d="M24.5 8.5H16.0517C15.5852 8.5 15.2069 8.88059 15.2069 9.35C15.2069 9.81941 15.5852 10.2 16.0517 10.2H24.5C24.9666 10.2 25.3448 9.81941 25.3448 9.35C25.3448 8.88059 24.9666 8.5 24.5 8.5Z" fill="black"/>
</svg>
